<svg width="88" height="37" viewBox="0 0 88 37" fill="none" xmlns="http://www.w3.org/2000/svg">
<g clip-path="url(#clip0_341_4798)">
<path d="M21.6826 36.7574L29.47 16.4602H79.6455L71.9943 36.7574H21.6826Z" fill="#141314"/>
<path d="M4.11179 21.8242V27.9298C4.11179 28.6115 4.13613 29.0837 4.18482 29.3467C4.23351 29.6096 4.35037 29.8603 4.53538 30.0989C4.90055 30.5761 5.42396 30.8146 6.10561 30.8146C6.78725 30.8146 7.31309 30.5639 7.68313 30.0624C7.84381 29.8384 7.95092 29.5828 8.00448 29.2955C8.05804 29.0083 8.08482 28.553 8.08482 27.9298V21.8242H11.0135V28.3242C11.0135 29.2395 10.9112 29.9772 10.7067 30.5371C10.5022 31.097 10.1444 31.618 9.63313 32.1C8.71777 32.957 7.48838 33.3854 5.94493 33.3854C4.40149 33.3854 3.18913 32.9472 2.30786 32.0708C1.89887 31.6618 1.60917 31.1701 1.43876 30.5955C1.26835 30.021 1.18314 29.2639 1.18314 28.3242V21.8242H4.11179ZM16.323 27.0023H17.3017C17.8616 27.0023 18.2681 26.8903 18.5213 26.6663C18.7794 26.4424 18.9084 26.0869 18.9084 25.6C18.9084 24.6555 18.3752 24.1832 17.309 24.1832H16.323V27.0023ZM16.323 29.354V33.1006H13.3944V21.8242H18.0612C18.7867 21.8242 19.3782 21.9118 19.8359 22.0871C20.2936 22.2624 20.7075 22.5594 21.0775 22.9781C21.6764 23.65 21.9758 24.5557 21.9758 25.695C21.9758 26.8343 21.6471 27.7302 20.9898 28.3826C20.3374 29.0302 19.3953 29.354 18.1634 29.354H16.323Z" fill="#141314"/>
<path d="M38.1024 22.6417L36.8535 24.8108C36.1329 24.2509 35.4732 23.9709 34.8743 23.9709C34.4897 23.9709 34.1829 24.061 33.9541 24.2411C33.7301 24.4164 33.6181 24.6526 33.6181 24.9496C33.6181 25.2222 33.7131 25.4486 33.903 25.6288C34.0003 25.7213 34.144 25.8235 34.3339 25.9355C34.5237 26.0426 34.7599 26.1644 35.0423 26.3007C35.9771 26.7389 36.6271 27.1917 36.9923 27.6591C37.3623 28.1168 37.5473 28.7205 37.5473 29.4704C37.5473 30.5999 37.1432 31.525 36.335 32.2456C35.5414 32.9662 34.5116 33.3265 33.2457 33.3265C32.564 33.3265 31.9457 33.2389 31.3906 33.0636C31.1131 32.9711 30.8112 32.8445 30.485 32.6838C30.1636 32.5232 29.8131 32.326 29.4333 32.0923L30.7187 29.9305C31.6243 30.5439 32.4204 30.8507 33.1069 30.8507C33.5646 30.8507 33.9273 30.746 34.1951 30.5366C34.4726 30.3273 34.6114 30.0546 34.6114 29.7187C34.6114 29.4606 34.5213 29.2488 34.3412 29.0833C34.1756 28.9177 33.8275 28.6986 33.2968 28.426C32.2889 27.9196 31.6 27.4376 31.2299 26.9799C30.8648 26.5222 30.6822 25.9136 30.6822 25.1541C30.6822 24.1316 31.0741 23.2844 31.858 22.6125C32.637 21.9406 33.6279 21.6046 34.8305 21.6046C35.9552 21.6046 37.0458 21.9503 38.1024 22.6417ZM43.0687 21.831L42.4625 26.7681L46.1872 21.831H49.4737L45.1574 27.5715L49.0136 33.1074H45.5737L43.1636 29.4996C42.8277 29.0029 42.5428 28.5087 42.3091 28.017L41.681 33.1074H38.8254L40.2131 21.831H43.0687ZM54.4473 21.831L53.0597 33.1074H50.2041L51.5917 21.831H54.4473ZM59.6765 21.831L58.5956 30.6243H62.1962L61.8821 33.1074H55.4333L56.8209 21.831H59.6765ZM67.6518 21.831L66.5709 30.6243H70.1714L69.8574 33.1074H63.4085L64.7962 21.831H67.6518Z" fill="#FDFDFD"/>
<mask id="mask0_341_4798" style="mask-type:luminance" maskUnits="userSpaceOnUse" x="66" y="0" width="22" height="22">
<path d="M88 0H66.5449V21.4551H88V0Z" fill="white"/>
</mask>
<g mask="url(#mask0_341_4798)">
<mask id="mask1_341_4798" style="mask-type:luminance" maskUnits="userSpaceOnUse" x="66" y="0" width="22" height="22">
<path d="M88 0H66.5449V21.4551H88V0Z" fill="white"/>
</mask>
<g mask="url(#mask1_341_4798)">
<path d="M86.5012 12.5098V5.90302C86.5012 5.90302 86.5012 4.97217 85.5703 4.97217H68.883C68.883 4.97217 67.9521 4.97217 67.9521 5.90302V12.5098C67.9521 12.5098 67.9521 13.4407 68.883 13.4407H82.6869V16.4603L85.0027 13.4407H85.7065C85.6838 13.4407 86.5012 13.4407 86.5012 12.5098Z" fill="white"/>
</g>
<mask id="mask2_341_4798" style="mask-type:luminance" maskUnits="userSpaceOnUse" x="66" y="0" width="22" height="22">
<path d="M88 0H66.5449V21.4551H88V0Z" fill="white"/>
</mask>
<g mask="url(#mask2_341_4798)">
<path d="M73.3789 9.14952C73.3789 9.6036 73.2654 9.96686 72.9249 10.1939C72.5843 10.5345 72.221 10.648 71.8805 10.648C71.4264 10.648 71.0632 10.5345 70.8361 10.1939C70.4956 9.85334 70.382 9.49008 70.382 9.14952C70.382 8.69545 70.4956 8.33218 70.8361 8.10515C71.1767 7.76459 71.5399 7.65107 71.8805 7.65107C72.3346 7.65107 72.6978 7.76459 72.9249 8.10515C73.2654 8.46841 73.3789 8.80896 73.3789 9.14952ZM73.7422 10.8977C74.1963 10.4436 74.446 9.85334 74.446 9.14952C74.446 8.4457 74.219 7.87811 73.7422 7.40133C73.2654 6.92455 72.6978 6.69751 71.994 6.69751C71.2902 6.69751 70.7226 6.92455 70.2458 7.40133C69.769 7.87811 69.542 8.4457 69.542 9.14952C69.542 9.85334 69.769 10.4209 70.2458 10.8977C70.7226 11.3745 71.2902 11.6015 71.994 11.6015C72.5843 11.7151 73.1519 11.4653 73.7422 10.8977ZM79.0776 11.6015H80.122V6.72021L77.5791 9.85334L75.0363 6.72021V11.5788H76.0807V9.49008L77.5791 11.4653L79.0776 9.49008V11.6015ZM82.7783 9.14952L84.9806 6.83373H80.8031V7.76459H82.7783L81.3934 9.14952L83.5957 11.6923H84.9806C84.9806 11.7151 82.7783 9.14952 82.7783 9.14952Z" fill="black"/>
</g>
</g>
</g>
<defs>
<clipPath id="clip0_341_4798">
<rect width="88" height="36.7575" fill="white"/>
</clipPath>
</defs>
</svg>
